<svg id="Ebene_1" xmlns="http://www.w3.org/2000/svg" viewBox="0 0 169.6 33"><style>.st0{fill:#D50F2E;} .st1{fill:#59595B;}</style><path class="st0" d="M142 15.7c.6 0 1.2.5 1.2 1.2v2.2c0 .6-.5 1.2-1.2 1.2h-18.7c-.6 0-1.2-.5-1.2-1.2V1.2c0-.6.5-1.2 1.2-1.2H142c.6 0 1.2.5 1.2 1.2v2.2c0 .6-.5 1.2-1.2 1.2h-15.2v3.3H139c.6 0 1.2.5 1.2 1.2v2.2c0 .6-.5 1.2-1.2 1.2h-12.2v3.3l15.2-.1M20.9 0h-2.3c-.6 0-1.2.5-1.2 1.2v6.6H4.7V1.1C4.7.5 4.2 0 3.5 0H1.2C.5 0 0 .5 0 1.2v18c0 .6.5 1.2 1.2 1.2h2.3c.6 0 1.2-.5 1.2-1.2v-6.7h12.8v6.7c0 .6.5 1.2 1.2 1.2H21c.6 0 1.2-.5 1.2-1.2v-18C22.1.5 21.6 0 20.9 0M45 15.7H29.8v-3.3H42c.6 0 1.2-.5 1.2-1.2V9c0-.6-.5-1.2-1.2-1.2H29.8V4.6H45c.6 0 1.2-.5 1.2-1.2V1.2C46.2.5 45.7 0 45 0H26.3c-.6 0-1.2.5-1.2 1.2v17.9c0 .6.5 1.2 1.2 1.2H45c.6 0 1.2-.5 1.2-1.2v-2.2c0-.7-.5-1.2-1.2-1.2M69.2 0H49.8c-.6 0-1.2.5-1.2 1.2v2.2c0 .6.5 1.2 1.2 1.2h7.4v14.5c0 .6.5 1.2 1.2 1.2h2.5c.6 0 1.2-.5 1.2-1.2V4.6h7.2c.6 0 1.2-.5 1.2-1.2V1.2C70.3.6 69.8 0 69.2 0m24.2 15.6h-13L93.2 4.4c.5-.4.9-1.3.9-1.9V1.2c0-.6-.5-1.2-1.2-1.2H74c-.6 0-1.2.5-1.2 1.2v2.2c0 .6.5 1.2 1.2 1.2h12.2c-.2.1-12.7 11.1-12.7 11.1-.5.4-.9 1.3-.9 1.9v1.5c0 .6.5 1.2 1.2 1.2h19.6c.6 0 1.2-.5 1.2-1.2v-2.3c0-.7-.6-1.2-1.2-1.2m26.1-8.5v-.4c0-1.4-.4-2.6-1-3.7-1.2-1.8-2.8-2.8-4.9-3H98.2c-.7 0-1.2.5-1.2 1.2v17.9c0 .6.5 1.2 1.2 1.2h2.5c.6 0 1.1-.5 1.2-1.1V4.7H111.8c1.7 0 3.1 1.4 3.1 3.1v11.4c0 .6.5 1.2 1.2 1.2h2.4c.6 0 1.2-.5 1.2-1.2V7.1m43.2 5.8c.2.2 6.5 6.6 6.5 6.6.4.5.3.8-.3.8H165c-.6 0-1.4-.4-1.8-.8l-5.3-5.3c-.4-.5-1.3-.8-2-.8h-5.4v5.8c0 .6-.5 1.2-1.2 1.2h-2.2c-.6 0-1.2-.5-1.2-1.2v-18c0-.6.5-1.2 1.2-1.2h14.8c2 .1 3.7 1.1 4.8 2.9.7 1.1 1 2.3 1 3.7 0 1.7-.5 3.1-1.5 4.4-.8 1.1-2 1.6-3.3 1.9m.2-5.9v-.2-.1-.4c0-.9-.8-1.7-1.7-1.7h-11v4.1h11c1 0 1.7-.8 1.7-1.7z"/><path class="st1" d="M0 31.8h94.6v1.1H0zM152.9 31.8h16.7v1.1h-16.7zM99.7 25.2c-2 0-2.8.9-2.8 2.9V30c0 2.1.8 2.9 2.8 2.9h4.1c2 0 2.8-.9 2.8-2.9v-1.9c0-2.1-.8-2.9-2.8-2.9h-4.1m-1.3 5.2v-2.7c0-.9.4-1.2 1.4-1.2h3.9c1 0 1.4.3 1.4 1.2v2.7c0 .9-.4 1.2-1.4 1.2h-3.9c-1 .1-1.4-.3-1.4-1.2zm18-5.1h1.5v7.6H116s-5.3-5.1-6.1-5.9v5.9h-1.5v-7.6h1.8s5.3 5.1 6.1 5.9c.1-1.1.1-5.9.1-5.9m3.4 0h1.5v6.3h5.5v1.3h-7v-7.6m8.3 0h1.5v7.6h-1.5v-7.6zm11.4 0h1.5v7.6h-1.8s-5.3-5.1-6.1-5.9v5.9h-1.5v-7.6h1.8s5.3 5.1 6.1 5.9v-5.9m3.5 0h7.5v1.3h-6v1.7h5.8v1.3h-5.8v1.9h6.1v1.3H143v-7.5"/></svg>